<?xml version="1.0" encoding="UTF-8"?>
<svg version="1.1" xmlns="http://www.w3.org/2000/svg" width="200" height="200">
<path d="M0 0 C66 0 132 0 200 0 C200 66 200 132 200 200 C134 200 68 200 0 200 C0 134 0 68 0 0 Z " fill="#081D2B" transform="translate(0,0)"/>
<path d="M0 0 C20.13 0 40.26 0 61 0 C61 66 61 132 61 200 C47.8 200 34.6 200 21 200 C21 189.11 21 178.22 21 167 C18.69 166.67 16.38 166.34 14 166 C9.7526998 163.39370215 7.67803605 160.68083741 6 156 C5.30866746 151.30399724 5.51877481 147.98095904 7.625 143.6875 C10.22611384 140.74413434 12.52896115 138.84177572 16 137 C17.65 137 19.3 137 21 137 C21 101.69 21 66.38 21 30 C14.07 30 7.14 30 0 30 C0 20.1 0 10.2 0 0 Z " fill="#FEB114" transform="translate(139,0)"/>
<path d="M0 0 C8.18776419 6.91190986 14.12483051 15.62717909 17.14453125 25.9296875 C17.18511138 27.59586007 17.1931932 29.26373138 17.14453125 30.9296875 C12.23337025 31.07816446 7.32351839 31.1869583 2.41064453 31.25927734 C0.74016564 31.28942571 -0.93015525 31.33035302 -2.60009766 31.38232422 C-5.0033258 31.45523596 -7.40446039 31.48915938 -9.80859375 31.515625 C-10.55353088 31.54659271 -11.29846802 31.57756042 -12.065979 31.60946655 C-14.18847656 31.61083984 -14.18847656 31.61083984 -17.85546875 30.9296875 C-20.20996094 28.03369141 -20.20996094 28.03369141 -21.85546875 24.9296875 C-27.85784512 19.24322567 -33.86174385 18.45815764 -41.8828125 18.6171875 C-47.74807857 19.23377263 -51.3545347 21.53108986 -55.60546875 25.4921875 C-61.81189477 33.92871914 -62.99099905 43.74467595 -61.85546875 53.9296875 C-60.28621997 60.90314698 -57.49132855 67.3208066 -51.85546875 71.9296875 C-45.13435809 76.00076024 -38.50063836 75.79192467 -30.85546875 74.9296875 C-27.01868972 73.6036118 -23.88032262 71.71069973 -21.81811523 68.12695312 C-20.38891043 65.70008601 -19.24213636 64.46912225 -16.85546875 62.9296875 C-11.04664998 62.03337699 -5.33739991 62.27077712 0.51953125 62.4921875 C2.13014092 62.52732749 3.74082393 62.55926182 5.3515625 62.58789062 C9.28437042 62.66475475 13.2136437 62.78537946 17.14453125 62.9296875 C15.36317809 76.1365033 8.84634591 86.26688148 -1.2109375 94.921875 C-15.09560177 105.46355511 -31.97928537 107.20055571 -48.85546875 105.9296875 C-53.44492329 105.07236807 -57.55998818 103.74081939 -61.85546875 101.9296875 C-62.73332031 101.5790625 -63.61117187 101.2284375 -64.515625 100.8671875 C-76.12122504 95.70117079 -85.4813995 86.01868988 -90.359375 74.32421875 C-93.93189813 64.75835864 -95.06204251 56.98813984 -95.10546875 46.8046875 C-95.12609375 45.61875 -95.14671875 44.4328125 -95.16796875 43.2109375 C-95.23444331 28.15445068 -90.1310741 15.04986315 -79.85546875 3.9296875 C-58.04372432 -17.03574586 -24.12468359 -17.49122066 0 0 Z " fill="#FCFCFC" transform="translate(118.85546875,71.0703125)"/>
<path d="M0 0 C3.98300668 1.39014743 6.63306371 3.5860206 9.4375 6.75 C11.64618024 11.34405489 11.89688516 15.28884429 10.31640625 20.06640625 C9.60973107 21.74011062 8.81248706 23.37502587 8 25 C7.34 25 6.68 25 6 25 C6 25.66 6 26.32 6 27 C1.10344335 29.39831346 -2.43209169 30.69598854 -8 30 C-12.84284553 28.287162 -16.05369863 25.60406468 -18.33984375 20.9921875 C-20.04898483 15.83442449 -19.75259619 11.53413839 -17.375 6.6875 C-12.21588981 0.84955952 -7.67531645 -1.31041988 0 0 Z " fill="#FAFBF9" transform="translate(164,137)"/>
<path d="M0 0 C0 0.99 0 1.98 0 3 C-0.66 3.66 -1.32 4.32 -2 5 C-2.4640625 6.670625 -2.4640625 6.670625 -2.9375 8.375 C-3.90419042 11.67312024 -4.64983719 13.55191374 -7 16 C-7.66 16 -8.32 16 -9 16 C-7.28087301 9.34969294 -4.84639278 4.87776102 0 0 Z " fill="#1C2C38" transform="translate(66,93)"/>
<path d="M0 0 C0.66 0 1.32 0 2 0 C2 0.66 2 1.32 2 2 C1.01 1.67 0.02 1.34 -1 1 C-0.67 0.67 -0.34 0.34 0 0 Z M-1 3 C-1 4.65 -1 6.3 -1 8 C-0.34 8 0.32 8 1 8 C1 9.65 1 11.3 1 13 C0.484375 12.2575 -0.03125 11.515 -0.5625 10.75 C-3.47534392 7.46371455 -6.12433906 6.01236241 -10 4 C-10 3.67 -10 3.34 -10 3 C-3.25 1.875 -3.25 1.875 -1 3 Z " fill="#F6B434" transform="translate(174,134)"/>
<path d="M0 0 C2 2 2 2 2.3125 5.6875 C2.22482384 10.04739633 0.93666181 13.12667637 -1 17 C-1.66 17 -2.32 17 -3 17 C-3 17.66 -3 18.32 -3 19 C-3.66 19 -4.32 19 -5 19 C-4.625 17.0625 -4.625 17.0625 -4 15 C-3.34 14.67 -2.68 14.34 -2 14 C-0.99740493 10.99221479 -0.69685358 8.46179353 -0.4375 5.3125 C-0.35371094 4.31863281 -0.26992187 3.32476562 -0.18359375 2.30078125 C-0.12300781 1.54152344 -0.06242188 0.78226563 0 0 Z " fill="#FEF5CB" transform="translate(173,145)"/>
<path d="M0 0 C0.33 0 0.66 0 1 0 C1.375 3.25 1.375 3.25 1 7 C-2 9.4375 -2 9.4375 -5 11 C-5.66 10.67 -6.32 10.34 -7 10 C-6.57847656 9.44570312 -6.15695313 8.89140625 -5.72265625 8.3203125 C-5.17480469 7.59585938 -4.62695312 6.87140625 -4.0625 6.125 C-3.51722656 5.40570313 -2.97195312 4.68640625 -2.41015625 3.9453125 C-0.96035376 2.05642921 -0.96035376 2.05642921 0 0 Z " fill="#1C2B36" transform="translate(130,150)"/>
<path d="M0 0 C0.99 0.495 0.99 0.495 2 1 C2 1.66 2 2.32 2 3 C4.97 3.495 4.97 3.495 8 4 C7.01 4.495 7.01 4.495 6 5 C5.27840576 6.64363134 4.60648579 8.31050386 4 10 C3.34 9.67 2.68 9.34 2 9 C1.3671875 6.93359375 1.3671875 6.93359375 0.875 4.4375 C0.70742187 3.61121094 0.53984375 2.78492188 0.3671875 1.93359375 C0.24601562 1.29550781 0.12484375 0.65742188 0 0 Z " fill="#10222F" transform="translate(96,128)"/>
<path d="M0 0 C0.33 0 0.66 0 1 0 C1.34548714 6.33393082 0.29342747 11.10261508 -2 17 C-2.99 16.67 -3.98 16.34 -5 16 C-5 15.34 -5 14.68 -5 14 C-4.34 14 -3.68 14 -3 14 C-2.01 9.38 -1.02 4.76 0 0 Z " fill="#EFB845" transform="translate(175,148)"/>
<path d="M0 0 C0.99 0.33 1.98 0.66 3 1 C1.84826645 3.46800047 0.95216435 5.04783565 -1 7 C-1.33 5.68 -1.66 4.36 -2 3 C-1.34 3 -0.68 3 0 3 C0 2.01 0 1.02 0 0 Z " fill="#132531" transform="translate(147,138)"/>
</svg>
